<svg xmlns="http://www.w3.org/2000/svg" xmlns:xlink="http://www.w3.org/1999/xlink" viewBox="0 0 491.43 552.93"><defs><style>.cls-1{fill:none;}.cls-2{fill:#575757;}.cls-2,.cls-4,.cls-5{fill-rule:evenodd;}.cls-3{clip-path:url(#clip-path);}.cls-4{fill:#59adb7;}.cls-5{fill:#fefefe;}</style><clipPath id="clip-path"><ellipse class="cls-1" cx="230.44" cy="230" rx="230.44" ry="230"/></clipPath></defs><title>Asset 2</title><g id="Layer_2" data-name="Layer 2"><g id="Layer_1-2" data-name="Layer 1"><g id="Layer_1-2-2" data-name="Layer 1-2"><g id="Layer_1-3" data-name="Layer 1-3"><g id="_1894052123648" data-name=" 1894052123648"><path class="cls-2" d="M230.44,0C357.71,0,460.88,103,460.88,230S357.71,460,230.44,460,0,357,0,230H0C.08,103,103.2.08,230.44,0Z"/><g class="cls-3"><path class="cls-4" d="M312.93,123.59h0a104.71,104.71,0,0,0-13.65-4l-1.19-1.36s-13.67-40.33-31-51.36c-20.26-12.13-42-7.9-58.19-2.52-8.11,2.52-6.59,5.22,1.33,5.22,19,0,38,5.39,50.11,6.74,6.75,2.85,16.19,5.38,8.1,5.38-13.67,0-59.43-14.82-85.36-7.92A16.64,16.64,0,0,0,169.7,87.05l-5.39,27.12a6.91,6.91,0,0,1-1.36,4c0,1.36-6.72,5.39-13.48,7.9-6.91,4.06-14.85,9.49-13.5,19,1.19,5.39,10.63,10.78,25.49,16.19a67.16,67.16,0,0,0,2.85,16.15s-2.85-4-6.92,0,0,16.33,2.88,21.71a19,19,0,0,0,2.68,9.49V210c0,4.06,1.36,6.57,3.9,6.57,9.61,36.21,39.3,65.82,63.73,65.82s53.82-29.63,63.45-66c1.33,0,4-4,4-6.57l-1.36-1.33c1.36-2.87,2.55-5.57,4.05-9.49,1.35-5.38,8.1-20.19,2.71-24.25a4,4,0,0,0-5.4,1.19,100.44,100.44,0,0,0,1.19-16.16,38.67,38.67,0,0,0,13.64-5.22c19-9.61,16.22-23.06,0-31ZM72.36,398.38c-9.51,13.12-18,23.73-18,23.73L141.2,552.93l350.23-92.65-102.91-62.8h0c-1-94.29-38.63-75.09-112-116.26l-28.34,79.42-8.27-52.7a1.33,1.33,0,0,0,1.35-1.3v-.05c2.71-1.19,6.92-7.9,6.92-13.48s-10.79,0-17.54,0c-8.09,0-17.55-5.38-17.55,0s4,12.29,6.59,13.48v1.35l-6.59,47.31L184.54,281C111,322.44,73.05,299.21,72.36,398.38Z"/></g><path class="cls-1" d="M230.44,0C357.71,0,460.88,103,460.88,230S357.71,460,230.44,460,0,357,0,230H0C.08,103,103.2.08,230.44,0Z"/><path class="cls-5" d="M10,294.65s40.82,159.47,300.45-.83l-14.86-25.6,106.8,5.06L355.79,366.9l-13.34-24.58S37.44,520.29,10,294.65Z"/><path class="cls-5" d="M418.21,94.9s16.52,51-54.32,84.54l-12.07-23.35-38.89,72.39,80.3,3.87-10.3-20.19S487.31,165.18,418.21,94.9Z"/></g></g></g></g></g></svg>