<?xml version="1.0" encoding="utf-8"?>
<svg id="master-artboard" viewBox="0 0 1400 980" xmlns="http://www.w3.org/2000/svg" width="1400px" height="980px" version="1.1" style="shape-rendering:geometricPrecision; text-rendering:geometricPrecision; image-rendering:optimizeQuality; fill-rule:evenodd; clip-rule:evenodd"><defs><clipPath id="id0">
     <path d="M2111 0c744,0 1347,603 1347,1346 0,744 -603,1347 -1347,1347 -743,0 -1346,-603 -1346,-1347 0,-743 603,-1346 1346,-1346z"/>
    </clipPath></defs><g transform="matrix(0.21276597069803652, 0, 0, 0.21276597069803652, 250.7446166515699, 0.000001094649633159861)"><g id="Layer_x0020_1">
  <metadata id="CorelCorpID_0Corel-Layer"/>
  
  
  <g id="_1894038299776" transform="matrix(1.8132457305682892, 0, 0, 1.8132457305682892, -1956.320606789519, -700.5374778656598)">
   <path class="fil2" d="M2111 0c744,0 1347,603 1347,1346 0,744 -603,1347 -1347,1347 -743,0 -1346,-603 -1346,-1347 0,-743 603,-1346 1346,-1346z" style="fill: rgb(87, 87, 87);"/>
   <g style="clip-path:url(#id0)">
    <g>
     <path id="1" class="fil3" d="M2593 723l0 0c-46,-16 -79,-24 -79,-24l-8 -7c0,0 -79,-237 -181,-301 -118,-70 -245,-46 -340,-15 -47,15 -39,31 8,31 111,0 221,32 293,39 39,17 95,32 47,32 -80,0 -348,-87 -499,-47 -70,15 -78,78 -78,78l-31 159c0,0 0,15 -8,24 0,7 -40,31 -79,46 -40,24 -87,56 -79,111 7,32 63,63 150,94 0,32 8,63 16,95 0,0 -16,-24 -40,0 -24,24 0,95 16,127 0,23 8,39 16,55 0,0 0,0 0,8 0,24 8,39 23,39 55,212 229,386 373,386 140,0 314,-174 369,-386 9,0 24,-24 24,-39l-7 -8c7,-16 15,-32 24,-55 7,-32 46,-118 15,-142 -15,-9 -24,0 -32,7 0,0 8,-39 8,-94 33,-8 55,-16 79,-32 111,-55 95,-134 0,-181l0 0zm-1405 1609c-57,77 -106,139 -106,139l507 766 2047 -543 -601 -368 0 0c-6,-552 -226,-439 -654,-680l-167 465 -47 -308c0,0 7,0 7,-8 17,-7 40,-46 40,-79 0,-31 -62,0 -101,0 -48,0 -104,-31 -104,0 0,33 24,72 39,79l0 8 -39 277 -166 -434c-430,241 -651,105 -655,686z" style="fill: rgb(89, 173, 183);"/>
    </g>
   </g>
   <path class="fil4" d="M2111 0c744,0 1347,603 1347,1346 0,744 -603,1347 -1347,1347 -743,0 -1346,-603 -1346,-1347 0,-743 603,-1346 1346,-1346z" style="fill: none;"/>
   <path class="fil5" d="M823 1725c0,0 238,934 1755,-5l-86 -149 624 28 -272 549 -78 -144c0,0 -1782,1042 -1943,-279z" style="fill: rgb(254, 254, 254);"/>
   <path class="fil5" d="M3209 555c0,0 96,298 -318,495l-71 -136 -227 424 469 23 -60 -119c0,0 611,-275 207,-687z" style="fill: rgb(254, 254, 254);"/>
  </g>
 <path d="M 2638.112060546875 3444.94189453125 L 2638.112060546875 3444.94189453125" style="fill: rgb(89, 173, 183); fill-opacity: 1; stroke: rgb(0, 0, 0); stroke-opacity: 1; stroke-width: 0; paint-order: fill;"/></g></g></svg>